<mxfile host="app.diagrams.net" modified="2021-11-10T08:07:05.458Z" agent="5.0 (Windows NT 10.0; Win64; x64) AppleWebKit/537.36 (KHTML, like Gecko) Chrome/95.0.4638.69 Safari/537.36 Edg/95.0.1020.44" etag="8SSjW4lZNvufFsKJLEws" version="15.7.1" type="github">
  <diagram id="Rpx_k5hmThUGLXwwka_P" name="Page-1">
    <mxGraphModel dx="1098" dy="762" grid="1" gridSize="10" guides="1" tooltips="1" connect="1" arrows="1" fold="1" page="1" pageScale="1" pageWidth="850" pageHeight="1100" math="0" shadow="0">
      <root>
        <mxCell id="0" />
        <mxCell id="1" parent="0" />
        <mxCell id="KoowjVMJXuRCq2HD3nXx-1" value="personal career growth" style="text;strokeColor=none;fillColor=none;align=left;verticalAlign=middle;spacingLeft=4;spacingRight=4;overflow=hidden;points=[[0,0.5],[1,0.5]];portConstraint=eastwest;rotatable=0;" vertex="1" parent="1">
          <mxGeometry x="320" y="110" width="150" height="30" as="geometry" />
        </mxCell>
        <mxCell id="KoowjVMJXuRCq2HD3nXx-4" value="." style="text;strokeColor=none;fillColor=none;align=left;verticalAlign=middle;spacingLeft=4;spacingRight=4;overflow=hidden;points=[[0,0.5],[1,0.5]];portConstraint=eastwest;rotatable=0;" vertex="1" parent="1">
          <mxGeometry x="60" y="240" width="150" height="30" as="geometry" />
        </mxCell>
        <mxCell id="KoowjVMJXuRCq2HD3nXx-9" value="" style="endArrow=classic;html=1;rounded=0;" edge="1" parent="1">
          <mxGeometry width="50" height="50" relative="1" as="geometry">
            <mxPoint x="340" y="150" as="sourcePoint" />
            <mxPoint x="120" y="230" as="targetPoint" />
          </mxGeometry>
        </mxCell>
        <mxCell id="KoowjVMJXuRCq2HD3nXx-10" value="" style="endArrow=classic;html=1;rounded=0;" edge="1" parent="1">
          <mxGeometry width="50" height="50" relative="1" as="geometry">
            <mxPoint x="390" y="150" as="sourcePoint" />
            <mxPoint x="400" y="230" as="targetPoint" />
          </mxGeometry>
        </mxCell>
        <mxCell id="KoowjVMJXuRCq2HD3nXx-11" value="" style="endArrow=classic;html=1;rounded=0;" edge="1" parent="1">
          <mxGeometry width="50" height="50" relative="1" as="geometry">
            <mxPoint x="440" y="150" as="sourcePoint" />
            <mxPoint x="620" y="230" as="targetPoint" />
          </mxGeometry>
        </mxCell>
        <mxCell id="KoowjVMJXuRCq2HD3nXx-12" value="&lt;h1&gt;&lt;span style=&quot;font-weight: 400&quot;&gt;&lt;font style=&quot;font-size: 24px&quot;&gt;Interview redayness&lt;/font&gt;&lt;/span&gt;&lt;br&gt;&lt;/h1&gt;&lt;p&gt;&amp;nbsp;* SOLID&lt;/p&gt;&lt;p&gt;* Design pattern&amp;nbsp;&lt;/p&gt;&lt;p&gt;* databse concepts&amp;nbsp;&lt;/p&gt;&lt;p&gt;* project structures&amp;nbsp;&lt;/p&gt;&lt;p&gt;* tech comparison&amp;nbsp;&lt;/p&gt;&lt;p&gt;* stack arc etc&amp;nbsp;&lt;/p&gt;&lt;p&gt;to be ready for interaction with others for new job or showing skills&amp;nbsp;&lt;/p&gt;&lt;p&gt;.&lt;/p&gt;" style="text;html=1;strokeColor=none;fillColor=none;spacing=5;spacingTop=-20;whiteSpace=wrap;overflow=hidden;rounded=0;" vertex="1" parent="1">
          <mxGeometry x="590" y="240" width="240" height="340" as="geometry" />
        </mxCell>
        <mxCell id="KoowjVMJXuRCq2HD3nXx-13" value="&lt;h1&gt;&lt;font style=&quot;font-size: 24px ; font-weight: normal&quot;&gt;Doing projects&lt;/font&gt;&lt;br&gt;&lt;/h1&gt;&lt;p&gt;something publicly available for every one to see SHOW OFF stuff&amp;nbsp;&lt;/p&gt;" style="text;html=1;strokeColor=none;fillColor=none;spacing=5;spacingTop=-20;whiteSpace=wrap;overflow=hidden;rounded=0;" vertex="1" parent="1">
          <mxGeometry x="350" y="240" width="190" height="120" as="geometry" />
        </mxCell>
        <mxCell id="KoowjVMJXuRCq2HD3nXx-14" value="&lt;h1&gt;&lt;span style=&quot;font-weight: normal&quot;&gt;Doing POCs&lt;/span&gt;&lt;/h1&gt;&lt;p&gt;to learn and implement new topics or old basic concepts&amp;nbsp;&lt;/p&gt;" style="text;html=1;strokeColor=none;fillColor=none;spacing=5;spacingTop=-20;whiteSpace=wrap;overflow=hidden;rounded=0;" vertex="1" parent="1">
          <mxGeometry x="50" y="250" width="190" height="120" as="geometry" />
        </mxCell>
      </root>
    </mxGraphModel>
  </diagram>
</mxfile>
